<?xml version="1.0" standalone="no"?>
<!DOCTYPE svg PUBLIC "-//W3C//DTD SVG 20010904//EN"
 "http://www.w3.org/TR/2001/REC-SVG-20010904/DTD/svg10.dtd">
<svg version="1.0" xmlns="http://www.w3.org/2000/svg"
 width="1349.000000pt" height="1349.000000pt" viewBox="0 0 1349.000000 1349.000000"
 preserveAspectRatio="xMidYMid meet">
<metadata>
Created by potrace 1.14, written by Peter Selinger 2001-2017
</metadata>
<g transform="translate(0.000000,1349.000000) scale(0.100000,-0.100000)"
fill="#000000" stroke="none">
<path d="M1625 13483 c-389 -46 -666 -154 -942 -370 -358 -279 -593 -683 -665
-1143 -19 -126 -19 -10324 0 -10450 122 -786 716 -1380 1502 -1502 126 -19
10324 -19 10450 0 786 122 1380 716 1502 1502 19 126 19 10324 0 10450 -30
195 -85 367 -173 541 -270 541 -794 902 -1401 968 -67 8 -1669 11 -5170 10
-2790 -1 -5086 -4 -5103 -6z m5394 -2511 c202 -190 323 -322 442 -481 213
-286 340 -538 454 -907 99 -320 151 -723 126 -984 -25 -251 -80 -479 -188
-780 -101 -278 -354 -738 -659 -1195 -215 -322 -320 -469 -761 -1064 -272
-367 -540 -745 -663 -936 -291 -450 -487 -860 -585 -1220 -35 -131 -44 -180
-59 -338 -8 -76 -19 -144 -25 -150 -8 -8 -21 -2 -49 24 -20 20 -77 67 -127
105 -178 137 -313 279 -487 514 -343 463 -515 937 -559 1536 -36 499 71 946
373 1549 99 199 101 202 236 430 126 212 398 615 578 856 27 36 94 127 149
203 55 76 141 192 190 259 183 244 253 340 445 612 176 249 217 309 310 460
51 83 114 184 140 225 26 41 71 120 100 175 29 55 66 125 83 155 125 233 240
560 287 820 35 193 51 274 57 283 10 16 37 -5 192 -151z m2060 -3269 c123
-266 352 -897 470 -1293 144 -485 218 -1053 181 -1385 -26 -228 -115 -598
-184 -763 -72 -169 -90 -210 -129 -287 -45 -91 -162 -286 -215 -360 -73 -102
-230 -293 -307 -374 -142 -149 -415 -368 -561 -450 -197 -111 -267 -147 -379
-193 -374 -154 -621 -215 -960 -237 -235 -16 -520 -14 -607 4 -40 8 -90 17
-111 20 -49 8 -103 55 -110 98 -9 56 22 266 63 416 106 398 236 679 545 1170
152 241 452 681 599 878 33 45 112 151 174 235 62 84 188 255 281 381 399 535
672 952 874 1331 142 267 205 419 292 701 21 66 39 123 42 128 9 16 30 6 42
-20z"/>
</g>
</svg>
